<svg width="78" height="31" viewBox="0 0 78 31" fill="none" xmlns="http://www.w3.org/2000/svg">
<path d="M51.3166 16.228C49.5126 14.6352 45.5539 13.4148 42.5441 12.9183C45.5539 12.421 49.5126 11.2006 51.3166 9.6095C53.0525 8.07876 53.8704 7.06861 53.1619 5.5396C52.6741 4.48894 50.702 4.39068 49.5712 3.3926C48.4404 2.39452 48.3275 0.654341 47.1355 0.225114C45.4031 -0.400627 44.2602 0.323371 42.5269 1.85325C40.7221 3.44518 39.3396 6.9376 38.7751 9.59312C38.2122 6.93674 36.8289 3.44432 35.0249 1.85238C33.2882 0.321647 32.1453 -0.400627 30.412 0.225114C29.22 0.656065 29.1088 2.39538 27.9789 3.3926C26.8489 4.38982 24.8743 4.49066 24.3882 5.54218C23.6789 7.0712 24.4994 8.07876 26.2327 9.60863C28.0375 11.2006 31.9971 12.421 35.0077 12.9183C31.9971 13.4157 28.0375 14.6361 26.2327 16.228C24.4977 17.7579 23.6789 18.7663 24.3891 20.2971C24.876 21.3477 26.8489 21.4468 27.9797 22.4432C29.1097 23.4413 29.2243 25.1823 30.4163 25.6116C32.1479 26.2382 33.2916 25.5124 35.0258 23.9834C36.4488 22.7276 37.6089 20.2876 38.3131 18.0079C38.0873 21.9166 38.7682 27.1363 41.6331 30.3003C42.7915 31.5785 43.7077 30.7752 44.0654 30.4615C44.424 30.1469 45.4488 29.2427 44.2257 28.0292C40.8557 24.6824 39.6869 21.2055 39.3749 18.4276C40.0877 20.5806 41.191 22.8035 42.5269 23.9834C44.2611 25.5133 45.4048 26.2373 47.1389 25.6116C48.3301 25.1806 48.4421 23.4396 49.5712 22.4432C50.702 21.4451 52.6758 21.346 53.1619 20.2936C53.8704 18.7646 53.0499 17.7562 51.3166 16.228Z" fill="#77B255"/>
<path d="M17.238 7.10977L4.33755 13.7904L17.238 20.4711V25.8571L0 16.587V10.9939L17.238 1.72382V7.10977Z" fill="#252525"/>
<path d="M60.312 7.10977L73.2124 13.7904L60.312 20.4711V25.8571L77.55 16.587V10.9939L60.312 1.72382V7.10977Z" fill="#252525"/>
</svg>
