<svg width="20" height="20" viewBox="0 0 20 20" fill="none" xmlns="http://www.w3.org/2000/svg">
<path d="M15.4444 9H4.55556C3.69645 9 3 9.69645 3 10.5556V16C3 16.8591 3.69645 17.5556 4.55556 17.5556H15.4444C16.3036 17.5556 17 16.8591 17 16V10.5556C17 9.69645 16.3036 9 15.4444 9Z" stroke="#BABABA" stroke-width="2" stroke-linecap="round" stroke-linejoin="round"/>
<path d="M6.11108 9V5.88889C6.11108 4.85749 6.52081 3.86834 7.25011 3.13903C7.97942 2.40972 8.96858 2 9.99997 2C11.0314 2 12.0205 2.40972 12.7498 3.13903C13.4791 3.86834 13.8889 4.85749 13.8889 5.88889V9" stroke="#BABABA" stroke-width="2" stroke-linecap="round" stroke-linejoin="round"/>
</svg>
