<svg width="20" height="20" viewBox="0 0 20 20" fill="none" xmlns="http://www.w3.org/2000/svg">
<path d="M10 18C14.4183 18 18 14.4183 18 10C18 5.58172 14.4183 2 10 2C5.58172 2 2 5.58172 2 10C2 14.4183 5.58172 18 10 18Z" stroke="#BABABA" stroke-width="2" stroke-linecap="round" stroke-linejoin="round"/>
<path d="M7.67212 7.59992C7.8602 7.06525 8.23144 6.6144 8.72008 6.32722C9.20872 6.04005 9.78324 5.93507 10.3419 6.03089C10.9005 6.12671 11.4072 6.41714 11.7722 6.85074C12.1372 7.28434 12.337 7.83314 12.3361 8.39992C12.3361 9.99992 9.93612 10.7999 9.93612 10.7999" stroke="#BABABA" stroke-width="2" stroke-linecap="round" stroke-linejoin="round"/>
<path d="M10 14H10.009" stroke="#BABABA" stroke-width="2" stroke-linecap="round" stroke-linejoin="round"/>
</svg>
