<svg width="66" height="66" viewBox="0 0 66 66" fill="none" xmlns="http://www.w3.org/2000/svg">
<path d="M42.61 41.0913L33.0109 31.4922L23.4117 41.0913" stroke="#FF4D4D" stroke-width="3" stroke-linecap="round" stroke-linejoin="round"/>
<path d="M33.0101 31.4922V53.0902" stroke="#FF4D4D" stroke-width="3" stroke-linecap="round" stroke-linejoin="round"/>
<path d="M53.1445 46.8266C55.4851 45.5506 57.3341 43.5314 58.3997 41.0878C59.4653 38.6442 59.6868 35.9154 59.0292 33.3319C58.3717 30.7484 56.8725 28.4575 54.7683 26.8207C52.6642 25.1839 50.0748 24.2944 47.409 24.2927H44.3853C43.6589 21.4831 42.3051 18.8748 40.4255 16.6638C38.546 14.4527 36.1897 12.6966 33.5337 11.5273C30.8778 10.358 27.9913 9.80607 25.0913 9.91292C22.1914 10.0198 19.3534 10.7826 16.7907 12.1442C14.228 13.5057 12.0073 15.4305 10.2955 17.7739C8.58379 20.1172 7.42555 22.8181 6.90789 25.6735C6.39024 28.5289 6.52663 31.4645 7.30682 34.2596C8.087 37.0547 9.49068 39.6365 11.4123 41.8111" stroke="#FF4D4D" stroke-width="3" stroke-linecap="round" stroke-linejoin="round"/>
<path d="M42.61 41.0913L33.0109 31.4922L23.4117 41.0913" stroke="#FF4D4D" stroke-width="3" stroke-linecap="round" stroke-linejoin="round"/>
</svg>
